<svg width="66" height="66" viewBox="0 0 66 66" fill="none" xmlns="http://www.w3.org/2000/svg">
<path d="M29.7 36.3V46.2C29.7 47.135 30.0163 47.9188 30.6488 48.5513C31.2812 49.1838 32.065 49.5 33 49.5C33.935 49.5 34.7188 49.1838 35.3512 48.5513C35.9838 47.9188 36.3 47.135 36.3 46.2V36.3H46.2C47.135 36.3 47.9188 35.9838 48.5513 35.3512C49.1838 34.7188 49.5 33.935 49.5 33C49.5 32.065 49.1838 31.2812 48.5513 30.6488C47.9188 30.0163 47.135 29.7 46.2 29.7H36.3V19.8C36.3 18.865 35.9838 18.0812 35.3512 17.4487C34.7188 16.8162 33.935 16.5 33 16.5C32.065 16.5 31.2812 16.8162 30.6488 17.4487C30.0163 18.0812 29.7 18.865 29.7 19.8V29.7H19.8C18.865 29.7 18.0812 30.0163 17.4487 30.6488C16.8162 31.2812 16.5 32.065 16.5 33C16.5 33.935 16.8162 34.7188 17.4487 35.3512C18.0812 35.9838 18.865 36.3 19.8 36.3H29.7ZM33 66C28.435 66 24.145 65.1338 20.13 63.4012C16.115 61.6687 12.6225 59.3175 9.6525 56.3475C6.6825 53.3775 4.33125 49.885 2.59875 45.87C0.86625 41.855 0 37.565 0 33C0 28.435 0.86625 24.145 2.59875 20.13C4.33125 16.115 6.6825 12.6225 9.6525 9.6525C12.6225 6.6825 16.115 4.33125 20.13 2.59875C24.145 0.86625 28.435 0 33 0C37.565 0 41.855 0.86625 45.87 2.59875C49.885 4.33125 53.3775 6.6825 56.3475 9.6525C59.3175 12.6225 61.6687 16.115 63.4012 20.13C65.1338 24.145 66 28.435 66 33C66 37.565 65.1338 41.855 63.4012 45.87C61.6687 49.885 59.3175 53.3775 56.3475 56.3475C53.3775 59.3175 49.885 61.6687 45.87 63.4012C41.855 65.1338 37.565 66 33 66Z" fill="#7D7AFF"/>
</svg>
